<?xml version="1.0" encoding="iso-8859-1"?>
<!-- Generator: Adobe Illustrator 19.0.0, SVG Export Plug-In . SVG Version: 6.00 Build 0)  -->
<svg version="1.1" id="Layer_1" xmlns="http://www.w3.org/2000/svg" xmlns:xlink="http://www.w3.org/1999/xlink" x="0px" y="0px"
	 viewBox="0 0 512 512" style="enable-background:new 0 0 512 512;" xml:space="preserve">
<g>
	<g>
		<path d="M334.716,395.636c-30.362,0-57.997,11.64-78.716,30.683c-20.719-19.043-48.356-30.683-78.716-30.683
			c-13.18,0-25.834,2.223-37.648,6.26V217.212h93.091v46.545h186.182l-31.03-108.606l31.03-108.606H279.273V0H93.091v431.723
			C73.174,452.606,60.92,480.864,60.92,512H451.08C451.08,447.733,398.981,395.636,334.716,395.636z M279.273,93.091h77.93
			l-14.078,49.273l-3.652,12.788l3.652,12.788l14.078,49.273h-77.93V93.091z"/>
	</g>
</g>
<g>
</g>
<g>
</g>
<g>
</g>
<g>
</g>
<g>
</g>
<g>
</g>
<g>
</g>
<g>
</g>
<g>
</g>
<g>
</g>
<g>
</g>
<g>
</g>
<g>
</g>
<g>
</g>
<g>
</g>
</svg>
